<svg width="77" height="24" viewBox="0 0 77 24" fill="none" xmlns="http://www.w3.org/2000/svg">
<g clip-path="url(#clip0_110_2494)">
<path d="M27.4472 23.3737L31.2901 0.822145H37.437L33.5911 23.3737H27.4472ZM55.799 1.30829C54.5815 0.851406 52.6731 0.361115 50.29 0.361115C44.216 0.361115 39.9378 3.41979 39.9012 7.8035C39.867 11.044 42.9557 12.8518 45.2873 13.9304C47.6801 15.0361 48.4843 15.7409 48.4728 16.7278C48.4574 18.2396 46.5621 18.9299 44.7951 18.9299C42.335 18.9299 41.028 18.5881 39.0092 17.7464L38.2169 17.388L37.3544 22.4363C38.7901 23.0661 41.4449 23.6112 44.2016 23.6396C50.6632 23.6396 54.8578 20.6158 54.9055 15.9344C54.9285 13.3689 53.2909 11.4169 49.7445 9.80717C47.596 8.76392 46.2802 8.06776 46.2941 7.01138C46.2941 6.074 47.4079 5.07164 49.8146 5.07164C51.8244 5.04042 53.2808 5.47876 54.4152 5.93564L54.966 6.19588L55.799 1.30829ZM71.6171 0.821798H66.8674C65.3961 0.821798 64.2948 1.22339 63.6488 2.69196L54.5197 23.3588H60.9745C60.9745 23.3588 62.0296 20.5801 62.2683 19.9699C62.9737 19.9699 69.2442 19.9796 70.1406 19.9796C70.3245 20.7691 70.8885 23.3588 70.8885 23.3588H76.5923L71.6171 0.821108V0.821798ZM64.0811 15.3842C64.5896 14.0849 66.5303 9.08003 66.5303 9.08003C66.4941 9.14005 67.0349 7.77435 67.3452 6.92763L67.7606 8.87197C67.7606 8.87197 68.9376 14.2552 69.1836 15.3839H64.0811V15.3842ZM22.2289 0.821798L16.211 16.201L15.5699 13.0757C14.4495 9.47297 10.959 5.56965 7.05687 3.61551L12.5596 23.3378L19.0632 23.3305L28.7405 0.821568L22.2289 0.821454" fill="#0E4595"/>
<path d="M10.5957 0.820984H0.683776L0.605209 1.29019C8.31658 3.15689 13.4189 7.66801 15.5374 13.089L13.3822 2.72558C13.0102 1.29757 11.931 0.871325 10.5959 0.821559" fill="#F2AE14"/>
</g>
<defs>
<clipPath id="clip0_110_2494">
<rect width="76" height="24" fill="white" transform="translate(0.903091)"/>
</clipPath>
</defs>
</svg>
