<svg width="24" height="24" viewBox="0 0 24 24" fill="none" xmlns="http://www.w3.org/2000/svg">
<path fill-rule="evenodd" clip-rule="evenodd" d="M19.1 19.16C19.69 18.26 19.91 17.8 20.36 16.79C17.04 15.53 16.51 10.8 19.79 8.99C18.79 7.73 17.38 7 16.05 7C15.09 7 14.43 7.25 13.84 7.48C13.34 7.67 12.89 7.84 12.33 7.84C11.73 7.84 11.2 7.65 10.64 7.45C10.04 7.23 9.39995 7 8.59995 7C7.10995 7 5.51996 7.91 4.50996 9.47C3.08996 11.67 3.33995 15.79 5.62995 19.31C6.44995 20.57 7.54996 21.98 8.97996 22C9.57996 22.01 9.96996 21.83 10.4 21.64C10.89 21.42 11.42 21.18 12.35 21.18C13.28 21.17 13.8 21.42 14.29 21.64C14.71 21.83 15.09 22.01 15.68 22C17.12 21.98 18.28 20.42 19.1 19.16Z" fill="#E0E0E0"/>
<path opacity="0.4" fill-rule="evenodd" clip-rule="evenodd" d="M15.8399 2C15.9999 3.1 15.5499 4.19 14.9599 4.95C14.3299 5.77 13.2299 6.41 12.1699 6.37C11.9799 5.31 12.4699 4.22 13.0699 3.49C13.7399 2.69 14.8699 2.07 15.8399 2Z" fill="#E0E0E0"/>
</svg>
