<svg width="24" height="24" viewBox="0 0 24 24" fill="none" xmlns="http://www.w3.org/2000/svg">
<path d="M21.25 22H2.75C2.34 22 2 21.66 2 21.25C2 20.84 2.34 20.5 2.75 20.5H21.25C21.66 20.5 22 20.84 22 21.25C22 21.66 21.66 22 21.25 22Z" fill="#E0E0E0"/>
<path opacity="0.4" d="M20.59 13.7L13.36 20.93C11.94 22.35 9.65 22.35 8.24 20.94L3.63 16.33L15.99 3.97L20.6 8.58C22.01 9.99 22.01 12.28 20.59 13.7Z" fill="#E0E0E0"/>
<path d="M15.9899 3.97001L3.61994 16.33L2.70994 15.42C1.29994 14.01 1.29994 11.72 2.71994 10.3L9.94994 3.07001C11.3699 1.65001 13.6599 1.65001 15.0699 3.06001L15.9899 3.97001Z" fill="#E0E0E0"/>
<path d="M12.8899 17.6L11.5399 18.95C11.2599 19.23 10.8099 19.23 10.5299 18.95C10.2499 18.67 10.2499 18.22 10.5299 17.94L11.8799 16.59C12.1599 16.31 12.6099 16.31 12.8899 16.59C13.1699 16.87 13.1699 17.32 12.8899 17.6Z" fill="#E0E0E0"/>
<path d="M17.27 13.22L14.58 15.91C14.3 16.19 13.85 16.19 13.57 15.91C13.29 15.63 13.29 15.18 13.57 14.9L16.26 12.21C16.54 11.93 16.99 11.93 17.27 12.21C17.54 12.49 17.54 12.94 17.27 13.22Z" fill="#E0E0E0"/>
</svg>
