<svg width="24" height="24" viewBox="0 0 24 24" fill="none" xmlns="http://www.w3.org/2000/svg">
<path opacity="0.4" d="M20.5 10.19H17.61C15.24 10.19 13.31 8.26 13.31 5.89V3C13.31 2.45 12.86 2 12.31 2H8.07C4.99 2 2.5 4 2.5 7.57V16.43C2.5 20 4.99 22 8.07 22H15.93C19.01 22 21.5 20 21.5 16.43V11.19C21.5 10.64 21.05 10.19 20.5 10.19Z" fill="#E0E0E0"/>
<path d="M15.8001 2.20999C15.3901 1.79999 14.6801 2.07999 14.6801 2.64999V6.13999C14.6801 7.59999 15.9201 8.80999 17.4301 8.80999C18.3801 8.81999 19.7001 8.81999 20.8301 8.81999C21.4001 8.81999 21.7001 8.14999 21.3001 7.74999C19.8601 6.29999 17.2801 3.68999 15.8001 2.20999Z" fill="#E0E0E0"/>
<path d="M12.2799 14.72C11.9899 14.43 11.5099 14.43 11.2199 14.72L10.4999 15.44V11.25C10.4999 10.84 10.1599 10.5 9.74994 10.5C9.33994 10.5 8.99994 10.84 8.99994 11.25V15.44L8.27994 14.72C7.98994 14.43 7.50994 14.43 7.21994 14.72C6.92994 15.01 6.92994 15.49 7.21994 15.78L9.21994 17.78C9.22994 17.79 9.23994 17.79 9.23994 17.8C9.29994 17.86 9.37994 17.91 9.45994 17.95C9.55994 17.98 9.64994 18 9.74994 18C9.84994 18 9.93994 17.98 10.0299 17.94C10.1199 17.9 10.1999 17.85 10.2799 17.78L12.2799 15.78C12.5699 15.49 12.5699 15.01 12.2799 14.72Z" fill="#E0E0E0"/>
</svg>
