<svg width="24" height="24" viewBox="0 0 24 24" fill="none" xmlns="http://www.w3.org/2000/svg">
<path opacity="0.4" d="M20.6 4.10001V6.30001C20.6 7.10001 20.1 8.10001 19.6 8.60001L15.3 12.4C14.7 12.9 14.3 13.9 14.3 14.7V19C14.3 19.6 13.9 20.4 13.4 20.7L12 21.6C10.7 22.4 8.89998 21.5 8.89998 19.9V14.6C8.89998 13.9 8.49998 13 8.09998 12.5L7.09998 11.45L12.92 2.10001H18.6C19.7 2.10001 20.6 3.00001 20.6 4.10001Z" fill="#E0E0E0"/>
<path d="M11.3 2.10001L6.12002 10.41L4.30002 8.50001C3.80002 8.00001 3.40002 7.10001 3.40002 6.50001V4.20001C3.40002 3.00001 4.30002 2.10001 5.40002 2.10001H11.3Z" fill="#E0E0E0"/>
</svg>
