<svg width="24" height="24" viewBox="0 0 24 24" fill="none" xmlns="http://www.w3.org/2000/svg">
<path opacity="0.4" d="M19.97 10V18C19.97 21 18.97 22 15.97 22H7.96997C4.96997 22 3.96997 21 3.96997 18V10H19.97Z" fill="#E0E0E0"/>
<path d="M21.5 7V8C21.5 9.1 20.97 10 19.5 10H4.5C2.97 10 2.5 9.1 2.5 8V7C2.5 5.9 2.97 5 4.5 5H19.5C20.97 5 21.5 5.9 21.5 7Z" fill="#E0E0E0"/>
<path opacity="0.4" d="M11.64 5H6.12003C5.78003 4.63 5.79003 4.06 6.15003 3.7L7.57003 2.28C7.94003 1.91 8.55003 1.91 8.92003 2.28L11.64 5Z" fill="#E0E0E0"/>
<path opacity="0.4" d="M17.87 5H12.35L15.07 2.28C15.44 1.91 16.05 1.91 16.42 2.28L17.84 3.7C18.2 4.06 18.21 4.63 17.87 5Z" fill="#E0E0E0"/>
<path opacity="0.6" d="M8.93994 10V15.14C8.93994 15.94 9.81994 16.41 10.4899 15.98L11.4299 15.36C11.7699 15.14 12.1999 15.14 12.5299 15.36L13.4199 15.96C14.0799 16.4 14.9699 15.93 14.9699 15.13V10H8.93994Z" fill="#E0E0E0"/>
</svg>
