<svg width="24" height="24" viewBox="0 0 24 24" fill="none" xmlns="http://www.w3.org/2000/svg">
<path opacity="0.4" d="M19.79 4.22001C16.83 1.27001 12.03 1.27001 9.09 4.22001C7.02 6.27001 6.4 9.22001 7.2 11.82L2.5 16.52C2.17 16.86 1.94 17.53 2.01 18.01L2.31 20.19C2.42 20.91 3.09 21.59 3.81 21.69L5.99 21.99C6.47 22.06 7.14 21.84 7.48 21.49L8.3 20.67C8.5 20.48 8.5 20.16 8.3 19.96L6.36 18.02C6.07 17.73 6.07 17.25 6.36 16.96C6.65 16.67 7.13 16.67 7.42 16.96L9.37 18.91C9.56 19.1 9.88 19.1 10.07 18.91L12.19 16.8C14.78 17.61 17.73 16.98 19.79 14.93C22.74 11.98 22.74 7.17001 19.79 4.22001ZM14.5 12C13.12 12 12 10.88 12 9.50001C12 8.12001 13.12 7.00001 14.5 7.00001C15.88 7.00001 17 8.12001 17 9.50001C17 10.88 15.88 12 14.5 12Z" fill="#E0E0E0"/>
<path d="M14.5 12C15.8807 12 17 10.8807 17 9.5C17 8.11929 15.8807 7 14.5 7C13.1193 7 12 8.11929 12 9.5C12 10.8807 13.1193 12 14.5 12Z" fill="#E0E0E0"/>
</svg>
