<svg width="24" height="24" viewBox="0 0 24 24" fill="none" xmlns="http://www.w3.org/2000/svg">
<path opacity="0.4" d="M13.24 2C13.71 2 14.1 2.38 14.1 2.86V21.15C14.1 21.62 13.72 22.01 13.24 22.01C7.34999 22.01 3.23999 17.9 3.23999 12.01C3.23999 6.12 7.35999 2 13.24 2Z" fill="#E0E0E0"/>
<path d="M20.54 11.54L17.7 8.69C17.41 8.4 16.93 8.4 16.64 8.69C16.35 8.98 16.35 9.46 16.64 9.75L18.2 11.31H8.63C8.22 11.31 7.88 11.65 7.88 12.06C7.88 12.47 8.22 12.81 8.63 12.81H18.2L16.64 14.37C16.35 14.66 16.35 15.14 16.64 15.43C16.79 15.58 16.98 15.65 17.17 15.65C17.36 15.65 17.55 15.58 17.7 15.43L20.54 12.58C20.83 12.3 20.83 11.83 20.54 11.54Z" fill="#E0E0E0"/>
</svg>
