<svg width="24" height="24" viewBox="0 0 24 24" fill="none" xmlns="http://www.w3.org/2000/svg">
<path opacity="0.4" d="M16.19 2H7.81C4.17 2 2 4.17 2 7.81V16.18C2 19.83 4.17 22 7.81 22H16.18C19.82 22 21.99 19.83 21.99 16.19V7.81C22 4.17 19.83 2 16.19 2Z" fill="#E0E0E0"/>
<path d="M11.9999 10.69C11.2799 10.69 10.6899 11.28 10.6899 12C10.6899 12.72 11.2799 13.31 11.9999 13.31C12.7199 13.31 13.3099 12.72 13.3099 12C13.3099 11.28 12.7199 10.69 11.9999 10.69Z" fill="#E0E0E0"/>
<path d="M6.99994 10.69C6.27994 10.69 5.68994 11.28 5.68994 12C5.68994 12.72 6.27994 13.31 6.99994 13.31C7.71994 13.31 8.30994 12.72 8.30994 12C8.30994 11.28 7.71994 10.69 6.99994 10.69Z" fill="#E0E0E0"/>
<path d="M16.9999 10.69C16.2799 10.69 15.6899 11.28 15.6899 12C15.6899 12.72 16.2799 13.31 16.9999 13.31C17.7199 13.31 18.3099 12.72 18.3099 12C18.3099 11.28 17.7199 10.69 16.9999 10.69Z" fill="#E0E0E0"/>
</svg>
