<svg width="24" height="24" viewBox="0 0 24 24" fill="none" xmlns="http://www.w3.org/2000/svg">
<path d="M20.96 17.84L19.33 18.39C18.88 18.54 18.5201 18.89 18.37 19.35L17.82 20.98C17.35 22.39 15.37 22.36 14.93 20.95L13.08 15C12.72 13.82 13.8101 12.72 14.9801 13.09L20.94 14.94C22.34 15.38 22.36 17.37 20.96 17.84Z" fill="#E0E0E0"/>
<path opacity="0.4" d="M11.5 21C16.7467 21 21 16.7467 21 11.5C21 6.25329 16.7467 2 11.5 2C6.25329 2 2 6.25329 2 11.5C2 16.7467 6.25329 21 11.5 21Z" fill="#E0E0E0"/>
</svg>
