<svg width="24" height="24" viewBox="0 0 24 24" fill="none" xmlns="http://www.w3.org/2000/svg">
<path opacity="0.4" d="M21.66 10.44L20.68 14.62C19.84 18.23 18.18 19.69 15.06 19.39C14.56 19.35 14.02 19.26 13.44 19.12L11.76 18.72C7.59 17.73 6.3 15.67 7.28 11.49L8.26 7.30001C8.46 6.45001 8.7 5.71001 9 5.10001C10.17 2.68001 12.16 2.03001 15.5 2.82001L17.17 3.21001C21.36 4.19001 22.64 6.26001 21.66 10.44Z" fill="#E0E0E0"/>
<path d="M15.06 19.39C14.44 19.81 13.66 20.16 12.71 20.47L11.13 20.99C7.16001 22.27 5.07001 21.2 3.78001 17.23L2.50001 13.28C1.22001 9.31001 2.28001 7.21001 6.25001 5.93001L7.83001 5.41001C8.24001 5.28001 8.63001 5.17001 9.00001 5.10001C8.70001 5.71001 8.46001 6.45001 8.26001 7.30001L7.28001 11.49C6.30001 15.67 7.59001 17.73 11.76 18.72L13.44 19.12C14.02 19.26 14.56 19.35 15.06 19.39Z" fill="#E0E0E0"/>
<path d="M17.49 10.51C17.43 10.51 17.37 10.5 17.3 10.49L12.45 9.25999C12.05 9.15999 11.81 8.74999 11.91 8.34999C12.01 7.94999 12.42 7.70999 12.82 7.80999L17.67 9.03999C18.07 9.13999 18.31 9.54999 18.21 9.94999C18.13 10.28 17.82 10.51 17.49 10.51Z" fill="#E0E0E0"/>
<path d="M14.56 13.89C14.5 13.89 14.44 13.88 14.37 13.87L11.46 13.13C11.06 13.03 10.82 12.62 10.92 12.22C11.02 11.82 11.43 11.58 11.83 11.68L14.74 12.42C15.14 12.52 15.38 12.93 15.28 13.33C15.2 13.67 14.9 13.89 14.56 13.89Z" fill="#E0E0E0"/>
</svg>
