<svg width="24" height="24" viewBox="0 0 24 24" fill="none" xmlns="http://www.w3.org/2000/svg">
<path opacity="0.4" d="M18.51 1.79999C18.01 1.79999 17.61 2.19999 17.61 2.69999V7.34999C17.61 7.84999 18.01 8.24999 18.51 8.24999C19.01 8.24999 19.41 7.84999 19.41 7.34999V2.69999C19.41 2.19999 19.01 1.79999 18.51 1.79999Z" fill="#E0E0E0"/>
<path d="M12 15.75C11.5 15.75 11.1 16.15 11.1 16.65V21.3C11.1 21.8 11.5 22.2 12 22.2C12.5 22.2 12.9 21.8 12.9 21.3V16.65C12.9 16.16 12.5 15.75 12 15.75Z" fill="#E0E0E0"/>
<path opacity="0.4" d="M5.48997 1.79999C4.98997 1.79999 4.58997 2.19999 4.58997 2.69999V7.34999C4.58997 7.84999 4.98997 8.24999 5.48997 8.24999C5.98997 8.24999 6.38997 7.84999 6.38997 7.34999V2.69999C6.38997 2.19999 5.97997 1.79999 5.48997 1.79999Z" fill="#E0E0E0"/>
<path opacity="0.4" d="M7.34998 10.17H3.62998C3.12998 10.17 2.72998 10.57 2.72998 11.07C2.72998 11.57 3.12998 11.97 3.62998 11.97H4.58998V21.3C4.58998 21.8 4.98998 22.2 5.48998 22.2C5.98998 22.2 6.38998 21.8 6.38998 21.3V11.97H7.34998C7.84998 11.97 8.24998 11.57 8.24998 11.07C8.24998 10.57 7.83998 10.17 7.34998 10.17Z" fill="#E0E0E0"/>
<path opacity="0.4" d="M20.37 10.17H16.65C16.15 10.17 15.75 10.57 15.75 11.07C15.75 11.57 16.15 11.97 16.65 11.97H17.61V21.3C17.61 21.8 18.01 22.2 18.51 22.2C19.01 22.2 19.41 21.8 19.41 21.3V11.97H20.37C20.87 11.97 21.27 11.57 21.27 11.07C21.27 10.57 20.87 10.17 20.37 10.17Z" fill="#E0E0E0"/>
<path d="M13.86 12.03H12.9V2.69999C12.9 2.19999 12.5 1.79999 12 1.79999C11.5 1.79999 11.1 2.19999 11.1 2.69999V12.03H10.14C9.63999 12.03 9.23999 12.43 9.23999 12.93C9.23999 13.43 9.63999 13.83 10.14 13.83H13.86C14.36 13.83 14.76 13.43 14.76 12.93C14.76 12.43 14.36 12.03 13.86 12.03Z" fill="#E0E0E0"/>
</svg>
