<svg width="24" height="24" viewBox="0 0 24 24" fill="none" xmlns="http://www.w3.org/2000/svg">
<path opacity="0.4" d="M16.19 2H7.81C4.17 2 2 4.17 2 7.81V16.18C2 19.83 4.17 22 7.81 22H16.18C19.82 22 21.99 19.83 21.99 16.19V7.81C22 4.17 19.83 2 16.19 2Z" fill="#E0E0E0"/>
<path d="M6.88 18.9C6.47 18.9 6.13 18.56 6.13 18.15V16.08C6.13 15.67 6.47 15.33 6.88 15.33C7.29 15.33 7.63 15.67 7.63 16.08V18.15C7.63 18.57 7.29 18.9 6.88 18.9Z" fill="#E0E0E0"/>
<path d="M12 18.9C11.59 18.9 11.25 18.56 11.25 18.15V14C11.25 13.59 11.59 13.25 12 13.25C12.41 13.25 12.75 13.59 12.75 14V18.15C12.75 18.57 12.41 18.9 12 18.9Z" fill="#E0E0E0"/>
<path d="M17.12 18.9C16.71 18.9 16.37 18.56 16.37 18.15V11.93C16.37 11.52 16.71 11.18 17.12 11.18C17.53 11.18 17.87 11.52 17.87 11.93V18.15C17.87 18.57 17.54 18.9 17.12 18.9Z" fill="#E0E0E0"/>
<path d="M17.87 5.82001C17.87 5.77001 17.85 5.71001 17.84 5.66001C17.83 5.62001 17.82 5.57001 17.81 5.53001C17.79 5.49001 17.76 5.46001 17.74 5.42001C17.71 5.38001 17.68 5.33001 17.64 5.30001C17.63 5.29001 17.63 5.28001 17.62 5.28001C17.59 5.26001 17.56 5.25001 17.53 5.23001C17.49 5.20001 17.44 5.17001 17.39 5.15001C17.34 5.13001 17.29 5.13001 17.24 5.12001C17.2 5.11001 17.17 5.10001 17.13 5.10001H14.2C13.79 5.10001 13.45 5.44001 13.45 5.85001C13.45 6.26001 13.79 6.60001 14.2 6.60001H15.45C13.07 9.10001 10.07 10.86 6.69998 11.71C6.29998 11.81 6.04998 12.22 6.14998 12.62C6.22998 12.96 6.53998 13.19 6.87998 13.19C6.93998 13.19 6.99998 13.18 7.05998 13.17C10.63 12.28 13.82 10.43 16.37 7.81001V8.78001C16.37 9.19001 16.71 9.53001 17.12 9.53001C17.53 9.53001 17.87 9.19001 17.87 8.78001V5.85001C17.87 5.84001 17.87 5.83001 17.87 5.82001Z" fill="#E0E0E0"/>
</svg>
