<svg width="28" height="20" viewBox="0 0 28 20" fill="none" xmlns="http://www.w3.org/2000/svg">
<rect width="28" height="20" rx="2" fill="white"/>
<mask id="mask0_56_657" style="mask-type:luminance" maskUnits="userSpaceOnUse" x="0" y="0" width="28" height="20">
<rect width="28" height="20" rx="2" fill="white"/>
</mask>
<g mask="url(#mask0_56_657)">
<path fill-rule="evenodd" clip-rule="evenodd" d="M0 5.33333H28V0H0V5.33333Z" fill="#DD172C"/>
<path fill-rule="evenodd" clip-rule="evenodd" d="M0 20H28V14.6667H0V20Z" fill="#DD172C"/>
<path fill-rule="evenodd" clip-rule="evenodd" d="M0 14.6667H28V5.33333H0V14.6667Z" fill="#FFD133"/>
<path fill-rule="evenodd" clip-rule="evenodd" d="M7.33334 9.33333H8.66667V10H7.33334V9.33333Z" fill="#FFEDB1"/>
<path d="M6.05902 9.36102C6.04282 9.16668 6.19618 9.00001 6.3912 9.00001H8.27546C8.47048 9.00001 8.62384 9.16668 8.60765 9.36102L8.43637 11.4164C8.39317 11.9347 7.95991 12.3333 7.43982 12.3333H7.22684C6.70675 12.3333 6.27349 11.9347 6.2303 11.4164L6.05902 9.36102Z" stroke="#A41517" stroke-width="0.666667"/>
<path fill-rule="evenodd" clip-rule="evenodd" d="M6 10H8.66667V10.6667H8L7.33333 12L6.66667 10.6667H6V10Z" fill="#A41517"/>
<rect x="4" y="8" width="1.33333" height="4.66667" rx="0.666667" fill="#A41517"/>
<rect x="9.33334" y="8" width="1.33333" height="4.66667" rx="0.666667" fill="#A41517"/>
<path d="M6 7.73334C6 7.14423 6.47756 6.66667 7.06667 6.66667H7.6C8.1891 6.66667 8.66667 7.14423 8.66667 7.73334C8.66667 7.88061 8.54728 8.00001 8.4 8.00001H6.26667C6.11939 8.00001 6 7.88061 6 7.73334Z" fill="#A41517"/>
</g>
</svg>
