<svg width="28" height="20" viewBox="0 0 28 20" fill="none" xmlns="http://www.w3.org/2000/svg">
<rect width="28" height="20" rx="2" fill="white"/>
<mask id="mask0_56_673" style="mask-type:luminance" maskUnits="userSpaceOnUse" x="0" y="0" width="28" height="20">
<rect width="28" height="20" rx="2" fill="white"/>
</mask>
<g mask="url(#mask0_56_673)">
<path fill-rule="evenodd" clip-rule="evenodd" d="M28 0H0V1.33333H28V0ZM28 2.66667H0V4H28V2.66667ZM0 5.33333H28V6.66667H0V5.33333ZM28 8H0V9.33333H28V8ZM0 10.6667H28V12H0V10.6667ZM28 13.3333H0V14.6667H28V13.3333ZM0 16H28V17.3333H0V16ZM28 18.6667H0V20H28V18.6667Z" fill="#D02F44"/>
<rect width="12" height="9.33333" fill="#46467F"/>
<g filter="url(#filter0_d_56_673)">
<path fill-rule="evenodd" clip-rule="evenodd" d="M2.66667 1.99999C2.66667 2.36818 2.36819 2.66666 2 2.66666C1.63181 2.66666 1.33333 2.36818 1.33333 1.99999C1.33333 1.63181 1.63181 1.33333 2 1.33333C2.36819 1.33333 2.66667 1.63181 2.66667 1.99999ZM5.33333 1.99999C5.33333 2.36818 5.03486 2.66666 4.66667 2.66666C4.29848 2.66666 4 2.36818 4 1.99999C4 1.63181 4.29848 1.33333 4.66667 1.33333C5.03486 1.33333 5.33333 1.63181 5.33333 1.99999ZM7.33333 2.66666C7.70152 2.66666 8 2.36818 8 1.99999C8 1.63181 7.70152 1.33333 7.33333 1.33333C6.96514 1.33333 6.66667 1.63181 6.66667 1.99999C6.66667 2.36818 6.96514 2.66666 7.33333 2.66666ZM10.6667 1.99999C10.6667 2.36818 10.3682 2.66666 10 2.66666C9.63181 2.66666 9.33333 2.36818 9.33333 1.99999C9.33333 1.63181 9.63181 1.33333 10 1.33333C10.3682 1.33333 10.6667 1.63181 10.6667 1.99999ZM3.33333 3.99999C3.70152 3.99999 4 3.70152 4 3.33333C4 2.96514 3.70152 2.66666 3.33333 2.66666C2.96514 2.66666 2.66667 2.96514 2.66667 3.33333C2.66667 3.70152 2.96514 3.99999 3.33333 3.99999ZM6.66667 3.33333C6.66667 3.70152 6.36819 3.99999 6 3.99999C5.63181 3.99999 5.33333 3.70152 5.33333 3.33333C5.33333 2.96514 5.63181 2.66666 6 2.66666C6.36819 2.66666 6.66667 2.96514 6.66667 3.33333ZM8.66667 3.99999C9.03486 3.99999 9.33333 3.70152 9.33333 3.33333C9.33333 2.96514 9.03486 2.66666 8.66667 2.66666C8.29848 2.66666 8 2.96514 8 3.33333C8 3.70152 8.29848 3.99999 8.66667 3.99999ZM10.6667 4.66666C10.6667 5.03485 10.3682 5.33333 10 5.33333C9.63181 5.33333 9.33333 5.03485 9.33333 4.66666C9.33333 4.29847 9.63181 3.99999 10 3.99999C10.3682 3.99999 10.6667 4.29847 10.6667 4.66666ZM7.33333 5.33333C7.70152 5.33333 8 5.03485 8 4.66666C8 4.29847 7.70152 3.99999 7.33333 3.99999C6.96514 3.99999 6.66667 4.29847 6.66667 4.66666C6.66667 5.03485 6.96514 5.33333 7.33333 5.33333ZM5.33333 4.66666C5.33333 5.03485 5.03486 5.33333 4.66667 5.33333C4.29848 5.33333 4 5.03485 4 4.66666C4 4.29847 4.29848 3.99999 4.66667 3.99999C5.03486 3.99999 5.33333 4.29847 5.33333 4.66666ZM2 5.33333C2.36819 5.33333 2.66667 5.03485 2.66667 4.66666C2.66667 4.29847 2.36819 3.99999 2 3.99999C1.63181 3.99999 1.33333 4.29847 1.33333 4.66666C1.33333 5.03485 1.63181 5.33333 2 5.33333ZM4 5.99999C4 6.36818 3.70152 6.66666 3.33333 6.66666C2.96514 6.66666 2.66667 6.36818 2.66667 5.99999C2.66667 5.6318 2.96514 5.33333 3.33333 5.33333C3.70152 5.33333 4 5.6318 4 5.99999ZM6 6.66666C6.36819 6.66666 6.66667 6.36818 6.66667 5.99999C6.66667 5.6318 6.36819 5.33333 6 5.33333C5.63181 5.33333 5.33333 5.6318 5.33333 5.99999C5.33333 6.36818 5.63181 6.66666 6 6.66666ZM9.33333 5.99999C9.33333 6.36818 9.03486 6.66666 8.66667 6.66666C8.29848 6.66666 8 6.36818 8 5.99999C8 5.6318 8.29848 5.33333 8.66667 5.33333C9.03486 5.33333 9.33333 5.6318 9.33333 5.99999ZM10 8C10.3682 8 10.6667 7.70152 10.6667 7.33333C10.6667 6.96514 10.3682 6.66666 10 6.66666C9.63181 6.66666 9.33333 6.96514 9.33333 7.33333C9.33333 7.70152 9.63181 8 10 8ZM8 7.33333C8 7.70152 7.70152 8 7.33333 8C6.96514 8 6.66667 7.70152 6.66667 7.33333C6.66667 6.96514 6.96514 6.66666 7.33333 6.66666C7.70152 6.66666 8 6.96514 8 7.33333ZM4.66667 8C5.03486 8 5.33333 7.70152 5.33333 7.33333C5.33333 6.96514 5.03486 6.66666 4.66667 6.66666C4.29848 6.66666 4 6.96514 4 7.33333C4 7.70152 4.29848 8 4.66667 8ZM2.66667 7.33333C2.66667 7.70152 2.36819 8 2 8C1.63181 8 1.33333 7.70152 1.33333 7.33333C1.33333 6.96514 1.63181 6.66666 2 6.66666C2.36819 6.66666 2.66667 6.96514 2.66667 7.33333Z" fill="url(#paint0_linear_56_673)"/>
</g>
</g>
<defs>
<filter id="filter0_d_56_673" x="1.33333" y="1.33333" width="9.33333" height="7.66667" filterUnits="userSpaceOnUse" color-interpolation-filters="sRGB">
<feFlood flood-opacity="0" result="BackgroundImageFix"/>
<feColorMatrix in="SourceAlpha" type="matrix" values="0 0 0 0 0 0 0 0 0 0 0 0 0 0 0 0 0 0 127 0" result="hardAlpha"/>
<feOffset dy="1"/>
<feColorMatrix type="matrix" values="0 0 0 0 0 0 0 0 0 0 0 0 0 0 0 0 0 0 0.06 0"/>
<feBlend mode="normal" in2="BackgroundImageFix" result="effect1_dropShadow_56_673"/>
<feBlend mode="normal" in="SourceGraphic" in2="effect1_dropShadow_56_673" result="shape"/>
</filter>
<linearGradient id="paint0_linear_56_673" x1="1.33333" y1="1.33333" x2="1.33333" y2="7.99999" gradientUnits="userSpaceOnUse">
<stop stop-color="white"/>
<stop offset="1" stop-color="#F0F0F0"/>
</linearGradient>
</defs>
</svg>
