<svg width="31" height="24" viewBox="0 0 31 24" fill="none" xmlns="http://www.w3.org/2000/svg">
<g clip-path="url(#clip0_110_2487)">
<path d="M5.60103 23.9474V22.3546C5.60103 21.7454 5.2299 21.3464 4.59278 21.3464C4.27423 21.3464 3.92784 21.4515 3.68969 21.7979C3.50412 21.5072 3.23815 21.3464 2.83918 21.3464C2.5732 21.3464 2.30722 21.4268 2.09691 21.7175V21.399H1.54021V23.9474H2.09691V22.5402C2.09691 22.0887 2.33505 21.8753 2.70619 21.8753C3.07732 21.8753 3.26289 22.1134 3.26289 22.5402V23.9474H3.81959V22.5402C3.81959 22.0887 4.08557 21.8753 4.42887 21.8753C4.8 21.8753 4.98557 22.1134 4.98557 22.5402V23.9474H5.60103ZM13.8588 21.399H12.9557V20.6289H12.399V21.399H11.8948V21.9031H12.399V23.0722C12.399 23.6567 12.6371 24 13.2742 24C13.5124 24 13.7784 23.9196 13.9639 23.8144L13.8031 23.335C13.6423 23.4402 13.4567 23.468 13.3237 23.468C13.0577 23.468 12.9526 23.3072 12.9526 23.0443V21.9031H13.8557V21.399H13.8588ZM18.5845 21.3433C18.266 21.3433 18.0526 21.5041 17.9196 21.7144V21.3959H17.3629V23.9443H17.9196V22.5093C17.9196 22.0856 18.1052 21.8443 18.4515 21.8443C18.5567 21.8443 18.6897 21.8722 18.7979 21.8969L18.9588 21.3649C18.8474 21.3433 18.6897 21.3433 18.5845 21.3433ZM11.4433 21.6093C11.1773 21.4237 10.8062 21.3433 10.4072 21.3433C9.7701 21.3433 9.34639 21.6619 9.34639 22.166C9.34639 22.5897 9.66495 22.8309 10.2217 22.9082L10.4876 22.9361C10.7784 22.9887 10.9392 23.0691 10.9392 23.2021C10.9392 23.3876 10.7258 23.5206 10.3546 23.5206C9.98351 23.5206 9.68969 23.3876 9.50412 23.2546L9.23815 23.6783C9.52887 23.8917 9.92784 23.9969 10.3268 23.9969C11.0691 23.9969 11.4959 23.6505 11.4959 23.1742C11.4959 22.7227 11.1495 22.4845 10.6206 22.4041L10.3546 22.3763C10.1165 22.3484 9.93093 22.2959 9.93093 22.1381C9.93093 21.9526 10.1165 21.8474 10.4103 21.8474C10.7289 21.8474 11.0474 21.9804 11.2082 22.0608L11.4433 21.6093ZM26.2546 21.3433C25.9361 21.3433 25.7227 21.5041 25.5897 21.7144V21.3959H25.033V23.9443H25.5897V22.5093C25.5897 22.0856 25.7753 21.8443 26.1217 21.8443C26.2268 21.8443 26.3598 21.8722 26.468 21.8969L26.6289 21.3711C26.5206 21.3433 26.3629 21.3433 26.2546 21.3433ZM19.1412 22.6732C19.1412 23.4433 19.6732 24 20.4959 24C20.867 24 21.133 23.9196 21.399 23.7093L21.133 23.2577C20.9196 23.4186 20.7093 23.4959 20.468 23.4959C20.0165 23.4959 19.6979 23.1773 19.6979 22.6732C19.6979 22.1938 20.0165 21.8753 20.468 21.8505C20.7062 21.8505 20.9196 21.9309 21.133 22.0887L21.399 21.6371C21.133 21.4237 20.867 21.3464 20.4959 21.3464C19.6732 21.3433 19.1412 21.9031 19.1412 22.6732ZM24.2907 22.6732V21.399H23.734V21.7175C23.5485 21.4794 23.2825 21.3464 22.9361 21.3464C22.2186 21.3464 21.6619 21.9031 21.6619 22.6732C21.6619 23.4433 22.2186 24 22.9361 24C23.3072 24 23.5732 23.867 23.734 23.6289V23.9474H24.2907V22.6732ZM22.2464 22.6732C22.2464 22.2216 22.5371 21.8505 23.0165 21.8505C23.468 21.8505 23.7866 22.1969 23.7866 22.6732C23.7866 23.1247 23.468 23.4959 23.0165 23.4959C22.5402 23.468 22.2464 23.1216 22.2464 22.6732ZM15.5845 21.3433C14.8423 21.3433 14.3103 21.8753 14.3103 22.6701C14.3103 23.468 14.8423 23.9969 15.6124 23.9969C15.9835 23.9969 16.3546 23.8917 16.6485 23.6505L16.3825 23.2515C16.1691 23.4124 15.9031 23.5175 15.6402 23.5175C15.2938 23.5175 14.9505 23.3567 14.8701 22.9082H16.7536C16.7536 22.8278 16.7536 22.7753 16.7536 22.6948C16.7784 21.8753 16.299 21.3433 15.5845 21.3433ZM15.5845 21.8227C15.9309 21.8227 16.1691 22.0361 16.2217 22.432H14.8948C14.9474 22.0887 15.1856 21.8227 15.5845 21.8227ZM29.4155 22.6732V20.3907H28.8588V21.7175C28.6732 21.4794 28.4072 21.3464 28.0608 21.3464C27.3433 21.3464 26.7866 21.9031 26.7866 22.6732C26.7866 23.4433 27.3433 24 28.0608 24C28.432 24 28.6979 23.867 28.8588 23.6289V23.9474H29.4155V22.6732ZM27.3711 22.6732C27.3711 22.2216 27.6619 21.8505 28.1412 21.8505C28.5928 21.8505 28.9113 22.1969 28.9113 22.6732C28.9113 23.1247 28.5928 23.4959 28.1412 23.4959C27.6619 23.468 27.3711 23.1216 27.3711 22.6732ZM8.73402 22.6732V21.399H8.17732V21.7175C7.99175 21.4794 7.72577 21.3464 7.37938 21.3464C6.66186 21.3464 6.10515 21.9031 6.10515 22.6732C6.10515 23.4433 6.66186 24 7.37938 24C7.75052 24 8.0165 23.867 8.17732 23.6289V23.9474H8.73402V22.6732ZM6.66495 22.6732C6.66495 22.2216 6.95567 21.8505 7.43505 21.8505C7.8866 21.8505 8.20515 22.1969 8.20515 22.6732C8.20515 23.1247 7.8866 23.4959 7.43505 23.4959C6.95567 23.468 6.66495 23.1216 6.66495 22.6732Z" fill="white"/>
<path d="M19.6206 2.04433H11.2577V17.0691H19.6206V2.04433Z" fill="#FF5A00"/>
<path d="M11.8144 9.5567C11.8144 6.50412 13.2495 3.79485 15.4515 2.04433C13.8309 0.770103 11.7866 0 9.5567 0C4.27423 0 0 4.27423 0 9.5567C0 14.8392 4.27423 19.1134 9.5567 19.1134C11.7866 19.1134 13.8309 18.3433 15.4515 17.0691C13.2464 15.3433 11.8144 12.6093 11.8144 9.5567Z" fill="#EB001B"/>
<path d="M30.9031 9.5567C30.9031 14.8392 26.6289 19.1134 21.3464 19.1134C19.1165 19.1134 17.0722 18.3433 15.4515 17.0691C17.6814 15.3155 19.0887 12.6093 19.0887 9.5567C19.0887 6.50412 17.6536 3.79485 15.4515 2.04433C17.0691 0.770103 19.1134 0 21.3433 0C26.6289 0 30.9031 4.30206 30.9031 9.5567Z" fill="#F79E1B"/>
</g>
<defs>
<clipPath id="clip0_110_2487">
<rect width="30.9031" height="24" fill="white"/>
</clipPath>
</defs>
</svg>
